<svg height="452pt" viewBox="-1 0 452 452.4122" width="452pt" xmlns="http://www.w3.org/2000/svg"><path d="m131.488281 354.5v59.300781c0 19.664063 15.941407 35.609375 35.605469 35.609375h243.792969c19.664062 0 35.609375-15.945312 35.609375-35.609375v-344.28125c0-19.664062-15.941406-35.609375-35.609375-35.609375h-243.792969c-19.664062 0-35.605469 15.941406-35.605469 35.609375zm0 0" fill="#fae6ca"/><g fill="#3a312a"><path d="m410.886719 452.414062h-243.792969c-21.289062 0-38.605469-17.320312-38.605469-38.613281v-59.296875c0-1.65625 1.34375-3 3-3s3 1.34375 3 3v59.296875c0 17.980469 14.625 32.613281 32.605469 32.613281h243.792969c17.976562 0 32.609375-14.628906 32.609375-32.613281v-344.28125c0-17.980469-14.628906-32.609375-32.609375-32.609375h-243.792969c-17.980469 0-32.605469 14.628906-32.605469 32.609375v258.464844c0 1.65625-1.34375 3-3 3s-3-1.34375-3-3v-258.464844c0-21.289062 17.316407-38.609375 38.605469-38.609375h243.792969c21.289062 0 38.609375 17.320313 38.609375 38.609375v344.28125c0 21.289063-17.320313 38.613281-38.609375 38.613281zm0 0"/><path d="m407.464844 164.914062h-236.292969c-1.65625 0-3-1.347656-3-3 0-1.65625 1.34375-3 3-3h236.289063c1.65625 0 3 1.34375 3 3 0 1.652344-1.339844 3-2.996094 3zm0 0"/><path d="m407.464844 211.8125h-236.292969c-1.65625 0-3-1.34375-3-3s1.34375-3 3-3h236.289063c1.65625 0 3 1.34375 3 3 .003906 1.65625-1.339844 3-2.996094 3zm0 0"/><path d="m407.464844 258.710938h-236.292969c-1.65625 0-3-1.34375-3-3s1.34375-3 3-3h236.289063c1.65625 0 3 1.34375 3 3 .003906 1.65625-1.339844 3-2.996094 3zm0 0"/><path d="m407.464844 305.609375h-236.292969c-1.65625 0-3-1.34375-3-3s1.34375-3 3-3h236.289063c1.65625 0 3 1.34375 3 3 .003906 1.65625-1.339844 3-2.996094 3zm0 0"/><path d="m407.464844 305.609375h-236.292969c-1.65625 0-3-1.34375-3-3s1.34375-3 3-3h236.289063c1.65625 0 3 1.34375 3 3 .003906 1.65625-1.339844 3-2.996094 3zm0 0"/><path d="m407.464844 399.414062h-236.292969c-1.65625 0-3-1.347656-3-3 0-1.65625 1.34375-3 3-3h236.289063c1.65625 0 3 1.34375 3 3 0 1.652344-1.339844 3-2.996094 3zm0 0"/><path d="m407.464844 352.511719h-236.292969c-1.65625 0-3-1.34375-3-3s1.34375-3 3-3h236.289063c1.65625 0 3 1.34375 3 3 .003906 1.65625-1.339844 3-2.996094 3zm0 0"/></g><path d="m65.140625 22.351562s6.816406 25.316407 26.441406 26.492188c0 0-26.199219 9.046875-26.640625 28.402344 0 0-5.15625-27.144532-25.851562-28.117188 0 0 24.101562-3.652344 26.050781-26.777344zm0 0" fill="#d6df58"/><path d="m64.9375 80.246094c-1.425781 0-2.667969-1.011719-2.945312-2.4375-.046876-.246094-4.988282-24.832032-23.039063-25.683594-1.542969-.074219-2.777344-1.300781-2.859375-2.84375-.078125-1.539062 1.023438-2.886719 2.546875-3.121094.882813-.136718 21.789063-3.632812 23.507813-24.0625.125-1.453125 1.269531-2.601562 2.71875-2.734375 1.460937-.113281 2.789062.800781 3.167968 2.203125.0625.230469 6.519532 23.25 23.726563 24.285156 1.425781.085938 2.59375 1.167969 2.792969 2.582032.195312 1.417968-.636719 2.777344-1.988282 3.246094-.242187.082031-24.238281 8.621093-24.625 25.636718-.035156 1.535156-1.21875 2.792969-2.75 2.917969-.085937.011719-.167968.011719-.253906.011719zm-15.480469-31.457032c7.757813 3.9375 12.460938 11.492188 15.175781 17.75 4.050782-8.039062 11.878907-13.574218 17.894532-16.851562-8.269532-3.6875-13.5625-11.304688-16.667969-17.449219-3.585937 8.722657-10.542969 13.738281-16.402344 16.550781zm0 0" fill="#3a312a"/><path d="m21.742188 56.3125s4.824218 17.90625 18.703124 18.738281c0 0-18.53125 6.402344-18.84375 20.089844 0 0-3.644531-19.199219-18.28125-19.886719-.003906 0 17.042969-2.582031 18.421876-18.941406zm0 0" fill="#d6df58"/><path d="m21.597656 98.140625c-1.425781 0-2.671875-1.011719-2.945312-2.4375-.03125-.164063-3.40625-16.886719-15.476563-17.453125-1.539062-.074219-2.773437-1.300781-2.855469-2.84375-.078124-1.539062 1.023438-2.886719 2.546876-3.121094.59375-.09375 14.726562-2.484375 15.882812-16.226562.125-1.453125 1.269531-2.605469 2.722656-2.738282 1.441406-.117187 2.78125.800782 3.160156 2.203126.042969.160156 4.457032 15.839843 15.988282 16.53125 1.429687.085937 2.597656 1.167968 2.792968 2.585937.191407 1.417969-.640624 2.78125-1.996093 3.246094-.160157.054687-16.5625 5.902343-16.820313 17.320312-.035156 1.539063-1.222656 2.796875-2.753906 2.921875-.078125.007813-.164062.011719-.246094.011719zm-9.035156-23.054687c4.210938 2.667968 7.042969 6.789062 8.890625 10.558593 2.753906-4.464843 7.03125-7.742187 10.730469-9.945312-4.574219-2.539063-7.769532-6.699219-9.882813-10.449219-2.34375 4.578125-6.027343 7.753906-9.738281 9.835938zm0 0" fill="#3a312a"/><path d="m21.742188 2.996094s4.824218 17.90625 18.703124 18.738281c0 0-18.53125 6.402344-18.84375 20.09375 0 0-3.644531-19.203125-18.28125-19.890625-.003906 0 17.042969-2.582031 18.421876-18.941406zm0 0" fill="#d6df58"/><path d="m21.597656 44.828125c-1.425781 0-2.671875-1.015625-2.945312-2.441406-.03125-.164063-3.40625-16.882813-15.476563-17.453125-1.539062-.070313-2.773437-1.300782-2.855469-2.839844-.078124-1.539062 1.023438-2.890625 2.546876-3.121094.59375-.09375 14.726562-2.484375 15.882812-16.226562.125-1.453125 1.269531-2.605469 2.722656-2.7343752 1.441406-.1210938 2.78125.7968752 3.160156 2.2031252.042969.15625 4.457032 15.839844 15.988282 16.53125 1.429687.082031 2.597656 1.167968 2.792968 2.585937.191407 1.417969-.640624 2.773438-1.992187 3.242188-.164063.054687-16.566406 5.90625-16.824219 17.324219-.035156 1.535156-1.222656 2.792968-2.753906 2.921874-.078125.003907-.164062.007813-.246094.007813zm-9.035156-23.054687c4.210938 2.664062 7.042969 6.785156 8.890625 10.558593 2.753906-4.464843 7.03125-7.746093 10.730469-9.949219-4.574219-2.535156-7.769532-6.699218-9.882813-10.445312-2.34375 4.574219-6.027343 7.753906-9.738281 9.835938zm0 0" fill="#3a312a"/><path d="m326.117188 114.914062h120.703124v-45.394531c0-19.664062-15.941406-35.609375-35.609374-35.609375h-243.789063c-19.667969 0-35.609375 15.941406-35.609375 35.609375v45.390625h194.304688zm0 0" fill="#8ac5dc"/><path d="m446.820312 117.914062h-120.703124c-1.65625 0-3-1.347656-3-3 0-1.65625 1.34375-3 3-3h117.703124v-42.394531c0-17.980469-14.628906-32.609375-32.609374-32.609375h-243.789063c-17.980469 0-32.609375 14.628906-32.609375 32.609375v42.390625h165.703125c1.65625 0 3 1.34375 3 3s-1.34375 3-3 3h-168.703125c-1.65625 0-3-1.34375-3-3v-45.390625c0-21.289062 17.320312-38.609375 38.609375-38.609375h243.792969c21.289062 0 38.609375 17.320313 38.609375 38.609375v45.390625c-.003907 1.65625-1.347657 3.003906-3.003907 3.003906zm0 0" fill="#3a312a"/><path d="m152.898438 56.945312v-42.566406c0-6.074218 4.925781-11 11-11h.910156c6.078125 0 11 4.925782 11 11v42.566406c0 6.074219-4.921875 11-11 11h-.910156c-6.074219 0-11-4.925781-11-11zm0 0" fill="#87796f"/><path d="m164.808594 70.941406h-.910156c-7.71875 0-14-6.28125-14-14v-42.5625c0-7.714844 6.28125-14 14-14h.910156c7.71875 0 14 6.285156 14 14v42.5625c0 7.722656-6.28125 14-14 14zm-.910156-64.5625c-4.410157 0-8 3.589844-8 8v42.5625c0 4.414063 3.589843 8 8 8h.910156c4.414062 0 8-3.585937 8-8v-42.5625c0-4.410156-3.585938-8-8-8zm0 0" fill="#3a312a"/><path d="m202.886719 56.945312v-42.566406c0-6.074218 4.921875-11 11-11h.910156c6.074219 0 11 4.925782 11 11v42.566406c0 6.074219-4.925781 11-11 11h-.910156c-6.078125 0-11-4.925781-11-11zm0 0" fill="#87796f"/><path d="m214.796875 70.941406h-.910156c-7.71875 0-14-6.28125-14-14v-42.5625c0-7.714844 6.28125-14 14-14h.910156c7.714844 0 14 6.285156 14 14v42.5625c0 7.722656-6.285156 14-14 14zm-.910156-64.5625c-4.414063 0-8 3.589844-8 8v42.5625c0 4.414063 3.585937 8 8 8h.910156c4.410156 0 8-3.585937 8-8v-42.5625c0-4.410156-3.589844-8-8-8zm0 0" fill="#3a312a"/><path d="m252.871094 56.945312v-42.566406c0-6.074218 4.921875-11 11-11h.90625c6.078125 0 11 4.925782 11 11v42.566406c0 6.074219-4.921875 11-11 11h-.90625c-6.074219 0-11-4.925781-11-11zm0 0" fill="#87796f"/><path d="m264.777344 70.941406h-.90625c-7.71875 0-14-6.28125-14-14v-42.5625c0-7.714844 6.28125-14 14-14h.90625c7.71875 0 14 6.285156 14 14v42.5625c0 7.722656-6.28125 14-14 14zm-.90625-64.5625c-4.410156 0-8 3.589844-8 8v42.5625c0 4.414063 3.589844 8 8 8h.90625c4.414062 0 8-3.585937 8-8v-42.5625c0-4.410156-3.585938-8-8-8zm0 0" fill="#3a312a"/><path d="m302.855469 56.945312v-42.566406c0-6.074218 4.921875-11 11-11h.910156c6.074219 0 11 4.925782 11 11v42.566406c0 6.074219-4.925781 11-11 11h-.910156c-6.078125 0-11-4.925781-11-11zm0 0" fill="#87796f"/><path d="m314.765625 70.941406h-.910156c-7.71875 0-14-6.28125-14-14v-42.5625c0-7.714844 6.28125-14 14-14h.910156c7.71875 0 14 6.285156 14 14v42.5625c0 7.722656-6.28125 14-14 14zm-.910156-64.5625c-4.414063 0-8 3.589844-8 8v42.5625c0 4.414063 3.585937 8 8 8h.910156c4.410156 0 8-3.585937 8-8v-42.5625c0-4.410156-3.589844-8-8-8zm0 0" fill="#3a312a"/><path d="m352.839844 56.945312v-42.566406c0-6.074218 4.921875-11 11-11h.910156c6.074219 0 11 4.925782 11 11v42.566406c0 6.074219-4.925781 11-11 11h-.910156c-6.074219 0-11-4.925781-11-11zm0 0" fill="#87796f"/><path d="m364.75 70.941406h-.910156c-7.71875 0-14-6.28125-14-14v-42.5625c0-7.714844 6.28125-14 14-14h.910156c7.71875 0 14 6.285156 14 14v42.5625c0 7.722656-6.28125 14-14 14zm-.910156-64.5625c-4.414063 0-8 3.589844-8 8v42.5625c0 4.414063 3.585937 8 8 8h.910156c4.410156 0 8-3.585937 8-8v-42.5625c0-4.410156-3.589844-8-8-8zm0 0" fill="#3a312a"/><path d="m402.824219 56.945312v-42.566406c0-6.074218 4.925781-11 11-11h.910156c6.074219 0 11 4.925782 11 11v42.566406c0 6.074219-4.921875 11-11 11h-.910156c-6.074219 0-11-4.925781-11-11zm0 0" fill="#87796f"/><path d="m414.734375 70.941406h-.910156c-7.71875 0-14-6.28125-14-14v-42.5625c0-7.714844 6.28125-14 14-14h.910156c7.71875 0 14 6.285156 14 14v42.5625c0 7.722656-6.28125 14-14 14zm-.910156-64.5625c-4.410157 0-8 3.589844-8 8v42.5625c0 4.414063 3.589843 8 8 8h.910156c4.410156 0 8-3.585937 8-8v-42.5625c0-4.410156-3.589844-8-8-8zm0 0" fill="#3a312a"/><path d="m194.601562 113.25 6.472657-12.800781c4.671875-9.242188.964843-20.523438-8.277344-25.195313-9.246094-4.671875-20.527344-.96875-25.199219 8.277344l-6.46875 12.800781zm0 0" fill="#ef6d7a"/><path d="m194.601562 116.25c-.457031 0-.917968-.105469-1.351562-.324219l-33.476562-16.917969c-1.476563-.746093-2.066407-2.550781-1.320313-4.03125l6.464844-12.800781c2.625-5.1875 7.105469-9.042969 12.625-10.855469s11.414062-1.367187 16.605469 1.253907c5.183593 2.621093 9.039062 7.105469 10.855468 12.625 1.8125 5.519531 1.371094 11.417969-1.253906 16.601562l-6.46875 12.800781c-.53125 1.046876-1.585938 1.648438-2.679688 1.648438zm-29.441406-21.242188 28.117188 14.207032 5.121094-10.121094c1.898437-3.753906 2.21875-8.027344.90625-12.023438-1.3125-4-4.109376-7.242187-7.863282-9.140624-3.753906-1.898438-8.023437-2.222657-12.023437-.910157-4 1.316407-7.246094 4.105469-9.144531 7.863281zm0 0" fill="#3a312a"/><path d="m194.601562 113.25-152.761718 299.800781-33.476563-16.921875 152.765625-299.796875zm0 0" fill="#8ac5dc"/><path d="m41.835938 416.050781c-.453126 0-.917969-.105469-1.351563-.324219l-33.476563-16.917968c-.707031-.359375-1.25-.988282-1.496093-1.746094-.25-.757812-.183594-1.585938.175781-2.292969l152.769531-299.800781c.75-1.472656 2.546875-2.0625 4.027344-1.316406l33.472656 16.917968c.710938.363282 1.25.988282 1.5 1.746094.246094.761719.183594 1.585938-.179687 2.292969l-152.765625 299.800781c-.53125 1.042969-1.582031 1.640625-2.675781 1.640625zm-29.433594-21.242187 28.121094 14.214844 150.039062-294.457032-28.121094-14.210937zm0 0" fill="#3a312a"/><path d="m84.496094 246.722656-76.132813 149.40625 33.476563 16.921875 76.132812-149.410156zm0 0" fill="#ef6d7a"/><path d="m41.835938 416.050781c-.453126 0-.917969-.105469-1.351563-.324219l-33.476563-16.917968c-.707031-.359375-1.25-.988282-1.496093-1.746094-.25-.757812-.183594-1.585938.175781-2.292969l76.132812-149.40625c.753907-1.476562 2.550782-2.0625 4.027344-1.316406l33.476563 16.917969c.710937.363281 1.25.988281 1.496093 1.746094.25.757812.183594 1.585937-.175781 2.292968l-76.132812 149.410156c-.53125 1.039063-1.582031 1.636719-2.675781 1.636719zm-29.433594-21.242187 28.121094 14.214844 73.40625-144.0625-28.121094-14.210938zm0 0" fill="#3a312a"/><path d="m41.839844 413.050781-33.476563-16.921875-5.15625 51.785156zm0 0" fill="#d6df58"/><path d="m3.207031 450.914062c-.460937 0-.925781-.109374-1.355469-.324218-1.105468-.558594-1.7539058-1.742188-1.628906-2.972656l5.15625-51.78125c.097656-.984376.675782-1.859376 1.542969-2.335938.867187-.472656 1.914063-.488281 2.796875-.046875l33.476562 16.917969c.882813.449218 1.488282 1.300781 1.621094 2.28125.128906.980468-.230468 1.960937-.964844 2.625l-38.632812 34.859375c-.570312.511719-1.289062.777343-2.011719.777343zm7.707031-50.132812-3.953124 39.699219 29.621093-26.726563zm0 0" fill="#3a312a"/><path d="m420.816406 321.714844c-15.996094-38.613282-60.261718-56.949219-98.875-40.953125-38.613281 15.992187-56.949218 60.261719-40.957031 98.875 15.996094 38.613281 60.265625 56.949219 98.878906 40.953125 38.613281-15.992188 56.949219-60.261719 40.953125-98.875zm0 0" fill="#d5dc57"/><path d="m350.890625 429.347656c-43.382813 0-78.675781-35.292968-78.675781-78.671875 0-43.382812 35.289062-78.675781 78.675781-78.675781 43.378906 0 78.671875 35.289062 78.671875 78.675781 0 43.378907-35.292969 78.671875-78.671875 78.671875zm0-151.347656c-40.074219 0-72.675781 32.601562-72.675781 72.675781s32.601562 72.675781 72.675781 72.675781c40.070313 0 72.671875-32.601562 72.671875-72.675781s-32.601562-72.675781-72.671875-72.675781zm0 0" fill="#3a312a"/><path d="m351.273438 376.105469h-24.460938l-3.398438 11.511719h-22l26.210938-69.730469h23.5l26.203125 69.730469h-22.5625zm-4.46875-15.078125-7.699219-25.066406-7.613281 25.066406zm0 0" fill="#87796f"/><path d="m377.324219 390.617188h-22.5625c-1.320313 0-2.488281-.867188-2.871094-2.128907l-2.839844-9.378906h-19.996093l-2.765626 9.359375c-.378906 1.277344-1.546874 2.148438-2.878906 2.148438h-22c-.984375 0-1.90625-.480469-2.46875-1.289063-.558594-.808594-.6875-1.84375-.339844-2.765625l26.210938-69.726562c.4375-1.171876 1.558594-1.949219 2.808594-1.949219h23.5c1.25 0 2.371094.777343 2.808594 1.949219l26.199218 69.726562c.347656.921875.21875 1.957031-.339844 2.765625-.558593.804687-1.480468 1.289063-2.464843 1.289063zm-20.335938-6h16.003907l-23.945313-63.730469h-19.347656l-23.957031 63.730469h15.425781l2.765625-9.359376c.375-1.277343 1.546875-2.152343 2.875-2.152343h24.464844c1.320312 0 2.488281.867187 2.871093 2.128906zm-10.183593-20.589844h-15.3125c-.949219 0-1.84375-.449219-2.410157-1.214844-.566406-.761719-.738281-1.75-.460937-2.660156l7.617187-25.0625c.386719-1.261719 1.546875-2.125 2.867188-2.128906h.003906c1.320313 0 2.480469.859374 2.871094 2.121093l7.695312 25.0625c.28125.910157.113281 1.898438-.453125 2.664063-.570312.769531-1.464844 1.21875-2.417968 1.21875zm-11.265626-6h7.210938l-3.625-11.796875zm0 0" fill="#3a312a"/><path d="m366.175781 317.925781h12.65625v-12.71875h10.671875v12.71875h12.71875v10.671875h-12.71875v12.652344h-10.671875v-12.652344h-12.65625zm0 0" fill="#87796f"/><path d="m389.5 344.253906h-10.671875c-1.65625 0-3-1.347656-3-3v-9.65625h-9.652344c-1.65625 0-3-1.34375-3-3v-10.671875c0-1.65625 1.34375-3 3-3h9.652344v-9.71875c0-1.65625 1.34375-3 3-3h10.671875c1.65625 0 3 1.34375 3 3v9.71875h9.722656c1.65625 0 3 1.34375 3 3v10.671875c0 1.65625-1.34375 3-3 3h-9.722656v9.65625c0 1.652344-1.34375 3-3 3zm-7.671875-6h4.671875v-9.65625c0-1.65625 1.34375-3 3-3h9.722656v-4.671875h-9.722656c-1.65625 0-3-1.34375-3-3v-9.71875h-4.671875v9.71875c0 1.65625-1.34375 3-3 3h-9.652344v4.671875h9.652344c1.65625 0 3 1.34375 3 3zm0 0" fill="#3a312a"/><path d="m413.496094 117.914062v185.179688c10.082031 13.21875 16.0625 29.71875 16.0625 47.578125s-5.980469 34.359375-16.0625 47.582031v15.558594c0 17.980469-14.617188 32.601562-32.597656 32.601562h30c17.980468 0 32.597656-14.621093 32.597656-32.601562v-295.898438zm0 0" fill="#decaad"/><path d="m443.816406 69.511719v42.398437h-30v-40.960937h.921875c7.71875 0 14-6.277344 14-14v-14.878907c9.058594 5.800782 15.078125 15.921876 15.078125 27.441407zm0 0" fill="#6ca8bf"/></svg>